<?xml version="1.0" standalone="no"?>
<!DOCTYPE svg PUBLIC "-//W3C//DTD SVG 20010904//EN"
 "http://www.w3.org/TR/2001/REC-SVG-20010904/DTD/svg10.dtd">
<svg version="1.0" xmlns="http://www.w3.org/2000/svg"
 width="1200.000000pt" height="1280.000000pt" viewBox="0 0 1200.000000 1280.000000"
 preserveAspectRatio="xMidYMid meet">
<metadata>
Created by potrace 1.15, written by Peter Selinger 2001-2017
</metadata>
<g transform="translate(0.000000,1280.000000) scale(0.100000,-0.100000)"
fill="#000000" stroke="none">
<path d="M4560 12793 c-269 -10 -352 -27 -972 -198 -48 -14 -138 -50 -199 -81
-131 -65 -391 -234 -417 -270 -61 -89 -101 -115 -227 -153 -124 -36 -167 -68
-474 -339 -355 -313 -448 -473 -476 -822 -9 -108 -20 -141 -70 -209 -57 -77
-117 -197 -145 -289 -21 -68 -22 -86 -17 -315 4 -218 7 -254 32 -362 38 -165
42 -280 16 -442 -23 -143 -28 -363 -11 -471 6 -35 28 -119 50 -188 30 -93 40
-142 40 -192 1 -107 17 -196 56 -295 94 -242 94 -241 98 -445 3 -109 11 -227
21 -282 11 -61 18 -170 20 -305 4 -238 13 -297 61 -375 49 -83 65 -221 70
-645 6 -413 25 -585 80 -731 19 -51 48 -159 65 -241 25 -121 29 -162 24 -223
-4 -48 -2 -86 5 -105 7 -16 29 -98 50 -181 21 -83 51 -182 67 -220 17 -38 45
-112 64 -164 22 -60 63 -140 113 -220 123 -196 195 -317 275 -467 96 -178 122
-215 176 -254 51 -37 146 -187 196 -311 47 -117 60 -137 113 -179 42 -34 96
-97 96 -113 0 -2 -21 7 -47 22 -39 21 -60 26 -118 26 -62 0 -81 -5 -170 -46
-55 -26 -163 -65 -239 -88 -76 -23 -179 -61 -227 -86 -49 -24 -202 -87 -341
-140 -259 -98 -411 -161 -623 -257 -66 -30 -185 -80 -265 -112 -182 -72 -262
-112 -372 -186 -107 -73 -273 -205 -341 -273 -104 -104 -199 -279 -285 -526
-99 -282 -200 -556 -241 -652 -56 -131 -71 -196 -71 -300 l0 -88 33 0 c17 0
66 4 107 10 41 5 126 14 188 20 62 6 155 22 207 35 120 31 128 31 207 -4 l64
-30 330 -1 c283 -2 334 0 366 14 47 20 71 20 111 -1 28 -15 88 -17 517 -20
403 -4 545 -1 842 16 197 12 434 21 526 21 195 0 193 -1 312 115 77 74 182
145 317 211 80 39 112 62 173 124 143 145 155 181 102 297 -20 43 -29 76 -26
91 9 31 16 28 53 -23 40 -56 94 -88 195 -115 74 -21 93 -21 160 -4 34 8 34 -1
-10 -99 -32 -73 -36 -89 -31 -145 12 -153 197 -428 301 -447 67 -13 498 0 532
16 17 8 87 73 156 145 129 133 173 199 198 294 6 25 16 62 21 83 6 24 36 67
83 120 113 127 190 238 245 350 27 56 79 143 115 192 103 143 126 193 126 283
0 73 -1 75 -38 112 -41 42 -117 70 -187 70 -22 0 -110 -12 -195 -26 -85 -14
-225 -29 -310 -34 -181 -10 -223 -18 -339 -67 -47 -19 -144 -57 -215 -84
l-129 -48 7 47 c3 25 10 50 14 54 4 4 53 27 109 52 348 155 876 462 1273 742
74 53 200 139 280 192 194 128 279 201 482 416 196 207 300 334 430 526 51 74
148 207 217 295 145 187 204 275 295 441 74 136 236 507 292 672 37 106 37
108 42 307 3 143 0 243 -11 350 -28 256 -28 253 35 382 31 62 76 140 100 175
72 101 104 165 152 305 52 153 57 164 137 286 83 125 127 220 204 437 88 249
135 407 141 482 8 82 -29 354 -60 445 -42 123 -133 282 -189 329 -30 25 -35
26 -97 19 -121 -14 -125 -13 -128 18 -2 15 4 62 12 103 11 52 16 130 16 243 0
269 -33 440 -132 681 -104 255 -103 250 -90 271 18 28 15 57 -13 140 -61 178
-105 373 -134 606 -12 97 -102 337 -158 423 -20 30 -80 111 -133 180 -141 182
-200 274 -249 389 -53 124 -100 179 -224 262 -213 143 -330 173 -512 133 -38
-8 -82 -17 -96 -20 l-26 -6 -5 87 c-10 146 -66 235 -246 386 -113 94 -142 110
-336 184 -278 105 -620 212 -784 244 -197 39 -273 46 -374 32 -80 -11 -102
-11 -161 3 -54 13 -119 16 -310 14 -133 -1 -276 -3 -317 -5z"/>
<path d="M8626 5408 c-15 -58 -4 -151 39 -328 47 -195 75 -355 75 -436 0 -27
-18 -141 -40 -252 l-41 -204 -103 -186 c-57 -103 -133 -246 -169 -317 -35 -72
-103 -196 -151 -277 -78 -133 -242 -451 -300 -581 -39 -88 -168 -305 -311
-523 -102 -155 -165 -267 -247 -434 -61 -124 -171 -341 -245 -482 -148 -285
-190 -376 -362 -778 -108 -252 -201 -503 -190 -514 2 -3 42 -10 89 -15 74 -10
93 -9 154 9 131 36 235 43 391 26 256 -28 486 -38 975 -43 338 -4 517 -2 590
6 58 7 168 16 245 21 134 8 182 19 252 55 30 15 34 15 65 -1 81 -42 123 -47
429 -49 287 -2 298 -3 324 -23 37 -29 160 -31 243 -3 44 15 95 20 228 23 147
4 176 7 200 23 23 15 57 21 174 26 80 5 210 12 290 18 80 5 282 17 450 26 168
10 306 18 307 20 2 1 4 561 5 1246 1 1056 -1 1249 -13 1274 -11 23 -39 42
-124 85 -132 66 -453 257 -585 348 -52 36 -196 138 -320 227 -192 139 -253
177 -415 258 -414 208 -568 336 -860 717 -190 247 -300 375 -410 474 -57 52
-130 136 -212 245 -140 185 -239 293 -295 322 -21 10 -57 19 -81 19 -38 0 -46
-3 -51 -22z"/>
</g>
</svg>
